<svg width="481" height="131" viewBox="0 0 481 131" fill="none" xmlns="http://www.w3.org/2000/svg">
<path fill-rule="evenodd" clip-rule="evenodd" d="M0 1.1861H81.7582V23.6269H24.5347V52.9653H72.7772V75.1147H24.5347V105.613H72.531H81.7582V129.062H0V1.1861Z" fill="#EDEFF0"/>
<path fill-rule="evenodd" clip-rule="evenodd" d="M146.843 0.467652L148.929 24.1797C148.929 24.1797 143.736 24.1797 151.832 24.1797C159.928 24.1797 169.252 35.4336 169.252 50.3514C169.252 65.2691 169.252 74.4563 169.252 81.1521C169.252 87.8479 164.749 106.246 148.929 106.263C133.11 106.28 126.22 88.6294 126.22 81.1521C126.22 73.6747 126.22 59.0523 126.22 50.3514C126.22 35.7506 132.618 24.1797 145.982 24.1797C159.346 24.1797 148.929 24.1797 148.929 24.1797L146.843 0.467652C146.843 0.467652 142.353 0.444254 136.267 1.65163C130.18 2.859 120.151 7.97815 115.796 11.9451C104.481 22.2529 101.87 35.9741 101.87 43.9072C101.87 51.8403 101.87 74.7884 101.87 87.5304C101.87 100.272 109.348 112.663 114.798 117.583C120.249 122.504 127.368 126.88 134.406 128.241C141.445 129.601 148.929 129.601 148.929 129.601C148.929 129.601 155.837 130.146 161.615 128.241C167.394 126.335 173.188 124.659 180.106 117.583C187.023 110.508 193.411 97.3041 193.411 87.8479C193.411 78.3916 193.411 51.6103 193.411 43.9072C193.411 36.2041 191.939 23.0878 179.108 11.9451C166.277 0.802442 146.843 0.467652 146.843 0.467652Z" fill="#EDEFF0"/>
<path fill-rule="evenodd" clip-rule="evenodd" d="M158.436 82.1061C158.053 81.7221 157.436 81.7143 157.044 82.0887L145.479 93.1241C145.071 93.5133 145.061 94.1649 145.458 94.5661L180.625 130.171C180.813 130.36 181.068 130.467 181.334 130.467H186.259C186.521 130.467 186.772 130.363 186.959 130.178L196.006 121.217C196.402 120.824 196.404 120.18 196.01 119.784L158.436 82.1061Z" fill="#EDEFF0"/>
<path fill-rule="evenodd" clip-rule="evenodd" d="M216.691 1.72174H241.23C241.23 1.72174 241.23 80.1658 241.23 87.3123C241.23 94.4587 248.768 107.245 262.766 107.32C276.765 107.396 284.22 94.9137 284.22 87.3123C284.22 79.7109 284.22 1.72174 284.22 1.72174H308.841C308.841 1.72174 308.841 81.0795 308.841 86.8827C308.841 92.6859 305.168 107.147 298.097 115.223C291.026 123.299 278.966 127.127 276.129 127.996C273.293 128.865 267.777 129.628 264.153 129.636C260.53 129.644 255.066 129.357 249.556 127.996C244.046 126.635 232.176 120.954 225.337 112.65C218.499 104.345 216.691 93.9605 216.691 87.3123C216.691 80.664 216.691 1.72174 216.691 1.72174Z" fill="#EDEFF0"/>
<path fill-rule="evenodd" clip-rule="evenodd" d="M335.777 1.80681H360.059V128.357H335.777V1.80681Z" fill="#EDEFF0"/>
<path fill-rule="evenodd" clip-rule="evenodd" d="M406.113 1.53305L440.8 62.9894V64.8543L403.352 128.868H373.915L413.28 62.9894L376.176 1.53305H406.113Z" fill="#1D7CAD"/>
<path fill-rule="evenodd" clip-rule="evenodd" d="M447.62 73.7867L433.862 97.3273L452.023 128.876H480.776L447.62 73.7867Z" fill="#EDEFF0"/>
<path fill-rule="evenodd" clip-rule="evenodd" d="M449.629 3.8227L433.737 31.0252L447.64 55.0946L477.822 3.8227H449.629Z" fill="#EDEFF0"/>
</svg>
