<svg xmlns="http://www.w3.org/2000/svg" width="14" height="14" viewBox="0 0 14 14">
    <path fill="#FFF" fill-rule="nonzero" d="M6.667 5.333H8v-2h2V2H8V0H6.667v2h-2v1.333h2v2zm-2.667 6A1.333 1.333 0 1 0 4 14a1.333 1.333 0 0 0 0-2.667zm6.667 0a1.333 1.333 0 1 0 0 2.667 1.333 1.333 0 0 0 0-2.667zM4.113 9.167l.02-.08.6-1.087H9.7c.5 0 .94-.273 1.167-.687L13.44 2.64 12.28 2h-.007l-.733 1.333L9.7 6.667H5.02l-.087-.18L3.44 3.333 2.807 2 2.18.667H0V2h1.333l2.4 5.06-.9 1.633a1.289 1.289 0 0 0-.166.64c0 .737.597 1.334 1.333 1.334h8V9.333H4.28a.17.17 0 0 1-.167-.166z"/>
</svg>
