<svg xmlns="http://www.w3.org/2000/svg" width="14" height="14" viewBox="0 0 14 14">
    <path fill="#FFF" fill-rule="nonzero" d="M13.836 13.227L.773.164 0 .937 2.672 3.61l1.345 2.836-.821 1.491c-.098.17-.153.372-.153.585 0 .672.546 1.217 1.218 1.217H8.8l.84.84c-.304.22-.51.578-.51.986 0 .673.544 1.218 1.217 1.218.408 0 .767-.201.986-.512L13.063 14l.773-.773zm-9.32-4.705a.152.152 0 0 1-.152-.152l.019-.073.547-.993h1.437l1.217 1.218H4.517zm4.95-1.218c.456 0 .857-.25 1.064-.627l2.18-3.938a.679.679 0 0 0 .073-.304.609.609 0 0 0-.61-.609H3.982l5.484 5.478zM4.26 10.348a1.217 1.217 0 1 0 0 2.435 1.217 1.217 0 0 0 0-2.435z"/>
</svg>
