<?xml version="1.0" encoding="UTF-8"?>
<svg width="14px" height="16px" viewBox="0 0 14 16" version="1.1" xmlns="http://www.w3.org/2000/svg" xmlns:xlink="http://www.w3.org/1999/xlink">
    <!-- Generator: Sketch 53.2 (72643) - https://sketchapp.com -->
    <title>csv-file-format-extension</title>
    <desc>Created with Sketch.</desc>
    <g id="Alert-Web" stroke="none" stroke-width="1" fill="none" fill-rule="evenodd">
        <g id="New-Order" transform="translate(-1021.000000, -106.000000)" fill="#758696" fill-rule="nonzero">
            <g id="csv-file-format-extension" transform="translate(1021.000000, 106.000000)">
                <path d="M13.1140168,5.72312148 L12.7344703,5.72312148 L12.7344703,3.86918625 C12.7344703,3.8575428 12.732625,3.84598689 12.7311258,3.83416835 C12.7305203,3.76063076 12.7073681,3.68826043 12.6575749,3.63106453 L9.60964147,0.107300685 C9.60874768,0.106308511 9.60779621,0.106016696 9.60719074,0.105112066 C9.58905531,0.0844806864 9.56786368,0.0674094596 9.5454611,0.0527019411 C9.53880087,0.0481204324 9.53214064,0.044356008 9.52516326,0.0404748573 C9.50578805,0.0298235791 9.4852019,0.0208648327 9.46401026,0.0144157026 C9.45827267,0.0128982602 9.45314054,0.0105053703 9.44740294,0.00892956477 C9.42433722,0.00344342694 9.40043537,0 9.37627402,0 L1.88553635,0 C1.54347168,0 1.26561622,0.281573106 1.26561622,0.627462424 L1.26561622,5.72294639 L0.886098577,5.72294639 C0.396759266,5.72294639 0,6.12436826 0,6.61969648 L0,11.2832055 C0,11.7783002 0.396759266,12.1801306 0.886098577,12.1801306 L1.26561622,12.1801306 L1.26561622,15.3725668 C1.26561622,15.7184853 1.54347168,16 1.88553635,16 L12.1145213,16 C12.4562688,16 12.7344703,15.7184853 12.7344703,15.3725668 L12.7344703,12.1801598 L13.1140168,12.1801598 C13.6031831,12.1801598 14,11.7785045 14,11.2833805 L14,6.61987156 C14.0000288,6.12439745 13.6031831,5.72312148 13.1140168,5.72312148 Z M1.88553635,0.627462424 L9.06627071,0.627462424 L9.06627071,3.83761178 C9.06627071,4.01095039 9.20518402,4.15134299 9.37624519,4.15134299 L12.1145213,4.15134299 L12.1145213,5.7230923 L1.88553635,5.7230923 L1.88553635,0.627462424 Z M6.55233757,9.13908855 C5.78309571,8.86796245 5.28190638,8.4371839 5.28190638,7.75620245 C5.28190638,6.95651032 5.94103825,6.34474759 7.03296957,6.34474759 C7.55503337,6.34474759 7.9396543,6.45595861 8.21416524,6.58132269 L7.98091311,7.43634311 C7.79552237,7.34567593 7.46591319,7.21362926 7.01244107,7.21362926 C6.55928612,7.21362926 6.33952744,7.4222484 6.33952744,7.66550609 C6.33952744,7.96452978 6.60037193,8.09648891 7.19814898,8.32594371 C8.01528104,8.63173753 8.39990197,9.06245771 8.39990197,9.72298287 C8.39990197,10.5082301 7.80247092,11.1758172 6.53180907,11.1758172 C6.00308504,11.1758172 5.48090591,11.036446 5.22003258,10.8907131 L5.43281387,10.0147987 C5.71456168,10.1611152 6.14713048,10.3067896 6.59371171,10.3067896 C7.07437254,10.3067896 7.32858564,10.1052033 7.32858564,9.7991468 C7.32844148,9.50703915 7.10853864,9.34038312 6.55233757,9.13908855 Z M1.0989087,8.83303209 C1.0989087,7.23443573 2.22549627,6.34474759 3.6261623,6.34474759 C4.16884109,6.34474759 4.5808814,6.45595861 4.76644514,6.55336673 L4.55331786,7.39426327 C4.34053657,7.30426726 4.04494933,7.22095384 3.67419666,7.22095384 C2.84319633,7.22095384 2.19781741,7.72798386 2.19781741,8.77046678 C2.19781741,9.70888816 2.74709876,10.2995818 3.6814047,10.2995818 C3.99703029,10.2995818 4.34734095,10.230188 4.55331786,10.1467287 L4.71140456,10.9739098 C4.51903643,11.0713763 4.08649646,11.1758172 3.52328917,11.1758172 C1.92310465,11.1758464 1.0989087,10.1675643 1.0989087,8.83303209 Z M12.1145213,15.2024965 L1.88553635,15.2024965 L1.88553635,12.1801598 L12.1145213,12.1801598 L12.1145213,15.2024965 Z M11.4220883,11.1060149 L10.1996338,11.1060149 L8.71621953,6.42132007 L9.86336442,6.42132007 L10.4263411,8.40257455 C10.5843124,8.958367 10.7284732,9.49355725 10.838612,10.0775099 L10.859054,10.0775099 C10.9757666,9.51436372 11.1198408,8.95833782 11.2778699,8.42311838 L11.8685542,6.42132007 L12.9814465,6.42132007 L11.4220883,11.1060149 Z" id="Shape"></path>
            </g>
        </g>
    </g>
</svg>