<svg xmlns="http://www.w3.org/2000/svg" xmlns:xlink="http://www.w3.org/1999/xlink" width="100" height="100" viewBox="0 0 100 100"><circle stroke="none" fill="#ffffff" r="48%" cx="50%" cy="50%"></circle><g transform="translate(50 50) scale(0.69 0.69) rotate(0) translate(-50 -50)" style="fill:#171b29"><svg fill="#171b29" xmlns:x="http://ns.adobe.com/Extensibility/1.0/" xmlns:i="http://ns.adobe.com/AdobeIllustrator/10.0/" xmlns:graph="http://ns.adobe.com/Graphs/1.0/" xmlns="http://www.w3.org/2000/svg" xmlns:xlink="http://www.w3.org/1999/xlink" version="1.1" x="0px" y="0px" viewBox="0 0 100 100" style="enable-background:new 0 0 100 100;" xml:space="preserve"><g><g i:extraneous="self"><g><path d="M5273.1,2400.1v-2c0-2.8-5-4-9.7-4s-9.7,1.3-9.7,4v2c0,1.8,0.7,3.6,2,4.9l5,4.9c0.3,0.3,0.4,0.6,0.4,1v6.4     c0,0.4,0.2,0.7,0.6,0.8l2.9,0.9c0.5,0.1,1-0.2,1-0.8v-7.2c0-0.4,0.2-0.7,0.4-1l5.1-5C5272.4,2403.7,5273.1,2401.9,5273.1,2400.1z      M5263.4,2400c-4.8,0-7.4-1.3-7.5-1.8v0c0.1-0.5,2.7-1.8,7.5-1.8c4.8,0,7.3,1.3,7.5,1.8C5270.7,2398.7,5268.2,2400,5263.4,2400z"></path><path d="M5268.4,2410.3c-0.6,0-1,0.4-1,1c0,0.6,0.4,1,1,1h4.3c0.6,0,1-0.4,1-1c0-0.6-0.4-1-1-1H5268.4z"></path><path d="M5272.7,2413.7h-4.3c-0.6,0-1,0.4-1,1c0,0.6,0.4,1,1,1h4.3c0.6,0,1-0.4,1-1C5273.7,2414.1,5273.3,2413.7,5272.7,2413.7z"></path><path d="M5272.7,2417h-4.3c-0.6,0-1,0.4-1,1c0,0.6,0.4,1,1,1h4.3c0.6,0,1-0.4,1-1C5273.7,2417.5,5273.3,2417,5272.7,2417z"></path></g><g><path d="M91.7,11.3c-0.5-2.2-3.3-3-4.9-1.4l-5,5C63.1-1.9,34.4-1.4,16.4,16.5c-18.6,18.6-18.6,48.8,0,67.4     c0.6,0.6,1.2,1.1,1.7,1.7c1,0.9,2.2,1.3,3.4,1.3c1.4,0,2.8-0.6,3.8-1.7c1.9-2.1,1.7-5.3-0.4-7.2l-1.4-1.3     C9,62.1,9,38.3,23.6,23.7c14-14,36.3-14.4,51-1.6l-5.5,5.5c-1.6,1.6-0.8,4.4,1.4,4.9l23.4,5.7c2.1,0.5,4.1-1.4,3.6-3.6L91.7,11.3     z"></path><path d="M66.8,54.8l-11.7-7.4V28.7c0-2.8-2.3-5.1-5.1-5.1c-2.8,0-5.1,2.3-5.1,5.1v21.4c0,1.7,0.9,3.4,2.4,4.3l14,8.9     c0.8,0.5,1.8,0.8,2.7,0.8c1.7,0,3.3-0.8,4.3-2.4C69.9,59.4,69.2,56.3,66.8,54.8z"></path><path d="M40.3,86.3l-1.9-0.6c-2.7-0.9-5.6,0.6-6.4,3.2c-0.9,2.7,0.6,5.6,3.2,6.4c0.8,0.3,1.6,0.5,2.4,0.7     c0.4,0.1,0.9,0.2,1.3,0.2c2.2,0,4.3-1.5,4.9-3.8C44.6,89.8,43,87,40.3,86.3z"></path><path d="M57.6,86.8l-2,0.3c-2.8,0.4-4.7,3-4.3,5.8c0.4,2.5,2.6,4.4,5,4.4c0.2,0,0.5,0,0.8-0.1c0.8-0.1,1.7-0.3,2.5-0.4     c2.8-0.6,4.5-3.2,4-6C63,88.1,60.3,86.3,57.6,86.8z"></path><path d="M73.2,79.6l-1.6,1.2c-2.3,1.6-2.8,4.8-1.2,7.1c1,1.4,2.6,2.2,4.2,2.2c1,0,2-0.3,2.9-0.9c0.7-0.5,1.4-1,2-1.5     c2.2-1.7,2.6-5,0.8-7.2C78.7,78.2,75.4,77.9,73.2,79.6z"></path></g></g></g></svg></g></svg>