<svg xmlns="http://www.w3.org/2000/svg" width="14" height="14" viewBox="0 0 14 14">
    <path fill="#FFF" fill-rule="nonzero" d="M11.278 7a1.167 1.167 0 1 1 0-2.333 1.167 1.167 0 0 1 0 2.333M8.944 3.889a1.167 1.167 0 1 1 0-2.333 1.167 1.167 0 0 1 0 2.333m-3.888 0a1.167 1.167 0 1 1 0-2.333 1.167 1.167 0 0 1 0 2.333M2.722 7a1.167 1.167 0 1 1 0-2.333 1.167 1.167 0 0 1 0 2.333M7 0a7 7 0 1 0 0 14c.644 0 1.167-.522 1.167-1.167 0-.303-.117-.575-.304-.777a1.167 1.167 0 0 1 .871-1.944h1.377A3.889 3.889 0 0 0 14 6.221C14 2.784 10.866 0 7 0z"/>
</svg>
