<svg xmlns="http://www.w3.org/2000/svg" width="19" height="16" viewBox="0 0 19 16">
    <g fill="#C5CBCE" fill-opacity=".54" fill-rule="nonzero">
        <path d="M15.304 16l-4.786-3.939H3.935C1.765 12.061 0 10.251 0 8.028V4.033C0 1.81 1.766 0 3.935 0H14.35c2.17 0 3.936 1.81 3.936 4.033v3.995c0 1.871-1.25 3.47-2.982 3.912V16zM3.935 1.146c-1.54 0-2.792 1.295-2.792 2.887v3.995c0 1.592 1.253 2.887 2.792 2.887h6.992l3.234 2.662v-2.622l.505-.06c1.412-.167 2.477-1.4 2.477-2.867V4.033c0-1.592-1.253-2.887-2.793-2.887H3.935z"/>
        <path d="M3.052 6.872c.202.132.62.286.944.286.331 0 .468-.123.468-.317 0-.193-.108-.286-.518-.432-.728-.263-1.01-.688-1.002-1.136 0-.703.562-1.236 1.433-1.236.411 0 .779.1.995.216l-.195.811a1.637 1.637 0 0 0-.763-.217c-.267 0-.418.117-.418.31 0 .177.137.27.57.433.669.246.95.61.957 1.166 0 .703-.518 1.22-1.527 1.22-.461 0-.872-.107-1.138-.262l.194-.842zM6.185 5.327c0-.471-.014-.873-.029-1.206h.922l.05.51h.022c.151-.239.461-.594 1.066-.594.454 0 .814.247.965.64h.015c.13-.193.288-.347.454-.455.195-.124.41-.185.67-.185.677 0 1.189.51 1.189 1.637V7.9h-1.066V5.845c0-.55-.167-.866-.52-.866-.251 0-.432.185-.504.41a1.05 1.05 0 0 0-.043.301V7.9H8.31V5.783c0-.48-.158-.804-.504-.804-.28 0-.447.232-.512.425a.832.832 0 0 0-.043.294V7.9H6.185V5.327zM12.372 6.872c.201.132.62.286.943.286.332 0 .469-.123.469-.317 0-.193-.109-.286-.519-.432-.728-.263-1.009-.688-1.002-1.136 0-.703.563-1.236 1.434-1.236.41 0 .778.1.994.216l-.194.811a1.637 1.637 0 0 0-.764-.217c-.266 0-.418.117-.418.31 0 .177.137.27.57.433.67.246.95.61.957 1.166 0 .703-.518 1.22-1.527 1.22-.46 0-.872-.107-1.138-.262l.195-.842z"/>
    </g>
</svg>
