<svg width="831" height="130" viewBox="0 0 831 130" fill="none" xmlns="http://www.w3.org/2000/svg">
<path fill-rule="evenodd" clip-rule="evenodd" d="M0 0.718894H81.7582V23.1596H24.5347V52.4981H72.7772V74.6475H24.5347V105.146H72.531H81.7582V128.594H0V0.718894Z" fill="#EEF0F1"/>
<path fill-rule="evenodd" clip-rule="evenodd" d="M146.843 0.000442653L148.929 23.7125C148.929 23.7125 143.736 23.7125 151.832 23.7125C159.928 23.7125 169.252 34.9664 169.252 49.8842C169.252 64.8019 169.252 73.9891 169.252 80.6849C169.252 87.3807 164.749 105.779 148.929 105.796C133.11 105.813 126.22 88.1622 126.22 80.6849C126.22 73.2075 126.22 58.585 126.22 49.8842C126.22 35.2834 132.618 23.7125 145.982 23.7125C159.346 23.7125 148.929 23.7125 148.929 23.7125L146.843 0.000442653C146.843 0.000442653 142.353 -0.0229549 136.267 1.18442C130.18 2.39179 120.151 7.51094 115.796 11.4779C104.481 21.7857 101.87 35.5069 101.87 43.44C101.87 51.3731 101.87 74.3212 101.87 87.0632C101.87 99.8052 109.348 112.195 114.798 117.116C120.249 122.037 127.368 126.413 134.406 127.773C141.445 129.134 148.929 129.134 148.929 129.134C148.929 129.134 155.837 129.679 161.615 127.773C167.394 125.868 173.189 124.191 180.106 117.116C187.023 110.041 193.411 96.8369 193.411 87.3807C193.411 77.9244 193.411 51.1431 193.411 43.44C193.411 35.7369 191.939 22.6206 179.108 11.4779C166.277 0.335233 146.843 0.000442653 146.843 0.000442653Z" fill="#EEF0F1"/>
<path fill-rule="evenodd" clip-rule="evenodd" d="M158.436 81.6389C158.053 81.2548 157.436 81.2471 157.044 81.6215L145.479 92.6569C145.071 93.0461 145.061 93.6977 145.458 94.0989L180.625 129.703C180.813 129.893 181.068 130 181.334 130H186.259C186.521 130 186.772 129.896 186.959 129.711L196.006 120.749C196.402 120.356 196.404 119.712 196.01 119.317L158.436 81.6389Z" fill="#EEF0F1"/>
<path fill-rule="evenodd" clip-rule="evenodd" d="M216.691 1.25453H241.23C241.23 1.25453 241.23 79.6986 241.23 86.8451C241.23 93.9915 248.768 106.778 262.766 106.853C276.765 106.928 284.22 94.4465 284.22 86.8451C284.22 79.2437 284.22 1.25453 284.22 1.25453H308.841C308.841 1.25453 308.841 80.6123 308.841 86.4155C308.841 92.2187 305.168 106.679 298.097 114.756C291.026 122.832 278.966 126.659 276.129 127.529C273.293 128.398 267.777 129.161 264.153 129.169C260.53 129.177 255.066 128.89 249.556 127.529C244.046 126.168 232.176 120.487 225.337 112.182C218.499 103.878 216.691 93.4933 216.691 86.8451C216.691 80.1968 216.691 1.25453 216.691 1.25453Z" fill="#EEF0F1"/>
<path fill-rule="evenodd" clip-rule="evenodd" d="M335.777 1.3396H360.059V127.89H335.777V1.3396Z" fill="#EEF0F1"/>
<path fill-rule="evenodd" clip-rule="evenodd" d="M406.113 1.06584L440.8 62.5222V64.3871L403.352 128.401H373.915L413.28 62.5222L376.176 1.06584H406.113Z" fill="#1D7CAD"/>
<path fill-rule="evenodd" clip-rule="evenodd" d="M447.62 73.3195L433.862 96.86L452.023 128.409H480.776L447.62 73.3195Z" fill="#EEF0F1"/>
<path fill-rule="evenodd" clip-rule="evenodd" d="M449.629 3.35549L433.737 30.558L447.64 54.6274L477.821 3.35549H449.629Z" fill="#EEF0F1"/>
<rect width="311" height="117" transform="translate(520 6.5)" fill="#EEF0F1"/>
<path d="M543.614 99.5V28.4062H564.61C570.893 28.4062 576.459 29.806 581.309 32.6055C586.192 35.4049 589.968 39.3763 592.638 44.5195C595.307 49.6628 596.641 55.5547 596.641 62.1953V65.7598C596.641 72.498 595.291 78.4225 592.589 83.5332C589.919 88.6439 586.095 92.5827 581.114 95.3496C576.166 98.1165 570.486 99.5 564.073 99.5H543.614ZM555.968 38.3672V89.6367H564.024C570.502 89.6367 575.466 87.6185 578.917 83.582C582.4 79.513 584.174 73.6862 584.239 66.1016V62.1465C584.239 54.4316 582.563 48.5397 579.21 44.4707C575.857 40.4017 570.99 38.3672 564.61 38.3672H555.968ZM650.402 67.7617H621.203V89.6367H655.334V99.5H608.849V28.4062H654.992V38.3672H621.203V57.9961H650.402V67.7617ZM681.311 28.4062L701.819 82.8984L722.278 28.4062H738.245V99.5H725.94V76.0625L727.161 44.7148L706.164 99.5H697.327L676.379 44.7637L677.6 76.0625V99.5H665.295V28.4062H681.311ZM809.534 65.8086C809.534 72.7747 808.33 78.8945 805.921 84.168C803.512 89.4089 800.062 93.4453 795.569 96.2773C791.11 99.0768 785.967 100.477 780.14 100.477C774.378 100.477 769.235 99.0768 764.71 96.2773C760.218 93.4453 756.735 89.4251 754.261 84.2168C751.819 79.0085 750.582 73.0026 750.55 66.1992V62.1953C750.55 55.2617 751.771 49.1419 754.212 43.8359C756.686 38.5299 760.153 34.4772 764.612 31.6777C769.105 28.8457 774.248 27.4297 780.042 27.4297C785.836 27.4297 790.963 28.8294 795.423 31.6289C799.915 34.3958 803.382 38.3997 805.823 43.6406C808.265 48.849 809.502 54.9199 809.534 61.8535V65.8086ZM797.181 62.0977C797.181 54.2201 795.683 48.1816 792.689 43.9824C789.726 39.7832 785.511 37.6836 780.042 37.6836C774.704 37.6836 770.521 39.7832 767.493 43.9824C764.498 48.1491 762.969 54.0573 762.903 61.707V65.8086C762.903 73.6211 764.417 79.6595 767.444 83.9238C770.504 88.1882 774.736 90.3203 780.14 90.3203C785.609 90.3203 789.808 88.237 792.737 84.0703C795.7 79.9036 797.181 73.8164 797.181 65.8086V62.0977Z" fill="#171B29"/>
</svg>
