<svg xmlns="http://www.w3.org/2000/svg" width="12" height="12" viewBox="0 0 12 12">
    <path fill="#FFF" fill-rule="nonzero" d="M5.154 6.846a.584.584 0 0 1 0 .852.605.605 0 0 1-.852 0 3.002 3.002 0 0 1 0-4.242l2.124-2.124a3.002 3.002 0 0 1 4.242 0 3.002 3.002 0 0 1 0 4.242l-.894.894a4.145 4.145 0 0 0-.24-1.452l.282-.288a1.789 1.789 0 0 0 0-2.544 1.789 1.789 0 0 0-2.544 0L5.154 4.302a1.789 1.789 0 0 0 0 2.544zm1.692-2.544a.605.605 0 0 1 .852 0 3.002 3.002 0 0 1 0 4.242l-2.124 2.124a3.002 3.002 0 0 1-4.242 0 3.002 3.002 0 0 1 0-4.242l.894-.894a4.2 4.2 0 0 0 .24 1.458l-.282.282a1.789 1.789 0 0 0 0 2.544 1.789 1.789 0 0 0 2.544 0l2.118-2.118a1.789 1.789 0 0 0 0-2.544.584.584 0 0 1 0-.852z"/>
</svg>
