<svg width="279" height="41" viewBox="0 0 279 41" fill="none" xmlns="http://www.w3.org/2000/svg">
<g clip-path="url(#clip0)">
<path d="M3.71 37.37C1.23667 34.99 0 31.6067 0 27.22H6.42C6.28895 29.4151 7.03331 31.5727 8.49 33.22C9.23206 33.9592 10.1211 34.5344 11.0996 34.9082C12.078 35.282 13.1241 35.4461 14.17 35.39C15.9002 35.4879 17.6098 34.9747 19 33.94C19.5661 33.4442 20.013 32.827 20.3074 32.1344C20.6017 31.4418 20.7359 30.6917 20.7 29.94C20.7669 28.6322 20.3181 27.3504 19.45 26.37C18.1278 25.1838 16.5804 24.2758 14.9 23.7L8.59 21.09C6.37388 20.2893 4.43386 18.8699 3 17C1.70144 15.1502 1.03822 12.929 1.11 10.67C1.09239 8.70834 1.64475 6.78376 2.7 5.13C3.79076 3.47128 5.33062 2.15685 7.14 1.34C9.17026 0.417993 11.3805 -0.0397784 13.61 3.20375e-06C15.9553 -0.0486068 18.2777 0.469384 20.38 1.51C22.2793 2.45937 23.8528 3.95284 24.9 5.8C25.9859 7.76636 26.5343 9.98418 26.49 12.23H20.06C20.1167 11.3244 19.9939 10.4165 19.6987 9.55844C19.4036 8.7004 18.9418 7.90911 18.34 7.23C17.6738 6.60647 16.8854 6.12808 16.0248 5.82512C15.1641 5.52216 14.2499 5.40123 13.34 5.47C11.8216 5.38559 10.3236 5.85061 9.12 6.78C8.61167 7.21466 8.20887 7.75924 7.94206 8.37254C7.67526 8.98584 7.55145 9.65179 7.58 10.32C7.57297 10.9736 7.70381 11.6214 7.96399 12.221C8.22418 12.8206 8.60786 13.3587 9.09 13.8C10.5679 15.0485 12.2627 16.0145 14.09 16.65L19.8 19C22.0014 19.8227 23.9159 21.2681 25.31 23.16C26.5859 25.1224 27.2249 27.4308 27.14 29.77C27.1726 31.8351 26.6102 33.8659 25.52 35.62C24.4266 37.3654 22.8492 38.7551 20.98 39.62C18.8523 40.5833 16.535 41.055 14.2 41C9.66 41 6.15667 39.81 3.69 37.43" fill="white"/>
<path d="M42.94 6.98H31.62V0.949997H60.73V6.98H49.36V39.99H42.94V6.98Z" fill="white"/>
<path d="M131.75 39.99H124.53L115.41 26L106.28 39.99H99.08L111.8 20.47L99.08 0.949997H106.28L131.75 39.99Z" fill="white"/>
<path d="M131.78 0.949997L122.74 14.84L119.13 9.31L124.57 0.949997H131.78Z" fill="#00C65E"/>
<path d="M94.9499 39.99H88.0599L77.8899 7.95L67.7199 39.99H60.8199L73.2199 0.949997H82.5499L94.9499 39.99Z" fill="white"/>
<path d="M186.75 12.74H178.9V30.35H176.64V12.74H168.82V10.59H186.75V12.74Z" fill="#00C65E"/>
<path d="M210 30.18V30.35H207.57L202.18 22.35H194.39V30.35H192.13V10.59H202.43C206.07 10.59 208.87 12.99 208.87 16.52C208.884 17.8063 208.461 19.0592 207.671 20.0744C206.881 21.0896 205.77 21.8071 204.52 22.11L210 30.18ZM194.39 20.28H202.39C204.82 20.28 206.65 18.84 206.65 16.52C206.65 14.2 204.82 12.74 202.39 12.74H194.39V20.28Z" fill="#00C65E"/>
<path d="M233.55 30.16V30.35H231.21L229.06 25.72H217.57L215.43 30.35H213.08V30.16L222.29 10.59H224.29L233.55 30.16ZM228 23.55L223.3 13.33L218.56 23.55H228Z" fill="#00C65E"/>
<path d="M256.55 20.47C256.55 26.09 252.12 30.35 246.25 30.35H238.63V10.59H246.25C252.12 10.59 256.55 14.86 256.55 20.47ZM254.3 20.47C254.3 16.01 250.94 12.74 246.25 12.74H240.89V28.18H246.25C250.94 28.18 254.3 24.93 254.3 20.47Z" fill="#00C65E"/>
<path d="M278.09 28.18V30.35H262.76V10.59H278V12.74H265V19.37H273.33V21.52H265V28.18H278.09Z" fill="#00C65E"/>
<path d="M150.8 0.949997H149.8V39.99H150.8V0.949997Z" fill="white"/>
</g>
<defs>
<clipPath id="clip0">
<rect width="278.09" height="40.95" fill="white"/>
</clipPath>
</defs>
</svg>
