<svg xmlns="http://www.w3.org/2000/svg" width="12" height="12" viewBox="0 0 12 12">
    <path fill="#FFF" fill-rule="nonzero" d="M0 1.962L.768 1.2 10.8 11.232l-.762.768L7.14 9.102l-1.566 1.566a3.002 3.002 0 0 1-4.242 0 3.002 3.002 0 0 1 0-4.242l.894-.894a4.2 4.2 0 0 0 .24 1.458l-.282.282a1.789 1.789 0 0 0 0 2.544 1.789 1.789 0 0 0 2.544 0L6.3 8.256l-.972-.966a.64.64 0 0 1-.174.408.605.605 0 0 1-.852 0 2.984 2.984 0 0 1-.87-2.298L0 1.962zm6.426-.63a3.002 3.002 0 0 1 4.242 0 3.002 3.002 0 0 1 0 4.242l-.894.894a4.145 4.145 0 0 0-.24-1.452l.282-.288a1.789 1.789 0 0 0 0-2.544 1.789 1.789 0 0 0-2.544 0L5.274 4.182l-.846-.852 1.998-1.998zm.42 2.97a.605.605 0 0 1 .852 0 3 3 0 0 1 .738 3.036L7.368 6.276a1.748 1.748 0 0 0-.522-1.122.584.584 0 0 1 0-.852z" opacity=".54"/>
</svg>
